# xmcd
#
# Track frame offsets: 
#        150
#        13162
#        38662
#        61792
#        81077
#        98120
#
# Disc length: 1661 seconds
#
# Revision: 0
# Processed by: cddbd v1.5.1PL0 Copyright (c) Steve Scherf et al.
# Submitted via: ExactAudioCopy v0.95a5
#
DISCID=3d067b06
DTITLE=Maantiekiitäjät '91 - Finnish-Texan R&B Music!
DYEAR=1991
DGENRE=Blues
TTITLE0=Voodoo Voodoo
TTITLE1=Hustler
TTITLE2=The Girl That Radiates That Charm
TTITLE3=Early In The Morning
TTITLE4=Number Nine, Number Nine
TTITLE5=Medley: Been Around The World-My Backscratcher
EXTD=
EXTT0=
EXTT1=
EXTT2=
EXTT3=
EXTT4=
EXTT5=
PLAYORDER=
